<svg width="270" height="90" viewBox="0 0 270 90" fill="none" xmlns="http://www.w3.org/2000/svg">
<path d="M19.544 60.288H19.784H20.408H22.712C24.824 60.256 27.16 60.24 29.72 60.24H36.728H39.032H39.656H39.896V66H39.656H39.032H36.728H29.72L22.712 66.048H20.408H19.784H19.544V60.288ZM19.544 44.976H19.784H20.408H22.712C24.856 44.944 27.192 44.928 29.72 44.928H36.728H39.032H39.656H39.896V50.688H39.656H39.032H36.728H29.72C27.192 50.688 24.872 50.704 22.76 50.736H20.456H19.784H19.544V44.976ZM19.544 27.6H19.736H20.408C21.048 27.568 21.816 27.552 22.712 27.552H29.672H36.68H38.984H39.656H39.848L39.896 33.312H39.656H38.984H36.68H29.72H22.712C21.816 33.312 21.048 33.328 20.408 33.36H19.784H19.544V27.6ZM55.1671 65.952L55.1191 27.648L73.6471 27.6V32.88L61.0231 32.832V42.288L73.5991 42.384L73.5511 47.808L61.0231 47.664V66.048L55.1671 65.952ZM88.874 65.952L88.826 27.648L107.354 27.6V32.88L94.73 32.832V42.288L107.306 42.384L107.258 47.808L94.73 47.664V66.048L88.874 65.952ZM122.581 66.24V65.808V64.56V60.192C122.581 56.192 122.597 51.776 122.629 46.944V33.648V29.28V28.032V27.6H122.677L128.773 27.552L141.349 55.872L153.349 27.648L159.445 27.744C159.445 27.776 159.429 27.792 159.397 27.792L159.349 27.888V28.176V29.424V33.792V47.04V60.336V64.704V65.952V66.384H153.589V65.952V64.704V60.336V47.04V41.376L143.029 66.192L139.765 66.24L128.389 40.512V46.944C128.357 51.776 128.341 56.192 128.341 60.192V64.608V65.808V66.24H122.581ZM208.311 43.968C209.175 43.936 209.895 44.208 210.471 44.784C211.047 45.36 211.351 46.048 211.383 46.848C211.415 47.68 211.143 48.4 210.567 49.008C210.023 49.616 209.319 49.92 208.455 49.92C207.559 49.952 206.807 49.68 206.199 49.104C205.623 48.496 205.335 47.776 205.335 46.944C205.335 46.272 205.543 45.664 205.959 45.12C206.375 44.544 206.919 44.192 207.591 44.064C207.751 44 207.991 43.968 208.311 43.968ZM173.367 66.048L189.879 27.648L193.095 27.6L210.135 66.048L203.991 66.144L191.511 37.968L179.415 66.144L173.367 66.048ZM240.065 39.888L236.993 33.072L239.489 27.6L245.585 27.552L240.065 39.888ZM228.401 66.048H222.065L230.753 46.944L222.113 27.648L228.305 27.504L236.897 46.8L236.945 46.848V46.896L245.537 66.048L242.513 66L239.249 66.048L233.825 53.856L228.401 66.048Z" fill="#F7F7F7"/>
<rect x="78" width="190" height="4" rx="2" fill="#F7F7F7"/>
<rect x="191" y="89.9999" width="190" height="4" rx="2" transform="rotate(-180 191 89.9999)" fill="#F7F7F7"/>
<path d="M1 2C1 0.895431 1.89543 0 3 0H75C76.1046 0 77 0.895431 77 2V2C77 3.10457 76.1046 4 75 4H3C1.89543 4 1 3.10457 1 2V2Z" fill="#F7F7F7"/>
<path d="M268 87.9999C268 89.1045 267.105 89.9999 266 89.9999L194 89.9999C192.895 89.9999 192 89.1045 192 87.9999V87.9999C192 86.8954 192.895 85.9999 194 85.9999L266 85.9999C267.105 85.9999 268 86.8954 268 87.9999V87.9999Z" fill="#F7F7F7"/>
<rect x="270" width="90" height="4" transform="rotate(90 270 0)" fill="#F7F7F7"/>
<rect x="4" width="90" height="4" transform="rotate(90 4 0)" fill="#F7F7F7"/>
</svg>
